<?xml version="1.0"?>
<svg fill="#6786a1" xmlns="http://www.w3.org/2000/svg" viewBox="0 0 64 64" width="512" height="512"><g id="website-man-globe-online-Digital_Marketing" data-name="website-man-globe-online-Digital Marketing"><rect x="6" y="6" width="2" height="2"/><rect x="10" y="6" width="2" height="2"/><rect x="14" y="6" width="2" height="2"/><path d="M21,17A13,13,0,1,0,34,30,13.015,13.015,0,0,0,21,17Zm-1,6.968a18.091,18.091,0,0,1-3.752-.572c.91-2.176,2.243-3.736,3.752-4.223Zm0,2V29H15.029a18.017,18.017,0,0,1,.578-3.709A20.076,20.076,0,0,0,20,25.967ZM20,31v3.033a20.076,20.076,0,0,0-4.393.676A18.017,18.017,0,0,1,15.029,31Zm0,5.032v4.8c-1.509-.487-2.842-2.047-3.752-4.223A18.091,18.091,0,0,1,20,36.032Zm2,0a18.091,18.091,0,0,1,3.752.572c-.91,2.176-2.243,3.736-3.752,4.223Zm0-2V31h4.971a18.017,18.017,0,0,1-.578,3.709A20.076,20.076,0,0,0,22,34.033ZM22,29V25.967a20.076,20.076,0,0,0,4.393-.676A18.017,18.017,0,0,1,26.971,29Zm0-5.032v-4.8c1.509.487,2.842,2.047,3.752,4.223A18.091,18.091,0,0,1,22,23.968Zm4.489-3.486a11.028,11.028,0,0,1,2.268,1.727,11.63,11.63,0,0,1-1.087.524A13.081,13.081,0,0,0,26.489,20.482ZM14.33,22.733a11.63,11.63,0,0,1-1.087-.524,11.028,11.028,0,0,1,2.268-1.727A13.081,13.081,0,0,0,14.33,22.733Zm-.634,1.9A20.133,20.133,0,0,0,13.03,29H10.051a10.933,10.933,0,0,1,1.894-5.232A13.829,13.829,0,0,0,13.7,24.629ZM13.03,31a20.133,20.133,0,0,0,.666,4.371,13.829,13.829,0,0,0-1.751.861A10.933,10.933,0,0,1,10.051,31Zm1.3,6.267a13.081,13.081,0,0,0,1.181,2.251,11.028,11.028,0,0,1-2.268-1.727A11.63,11.63,0,0,1,14.33,37.267Zm13.34,0a11.63,11.63,0,0,1,1.087.524,11.028,11.028,0,0,1-2.268,1.727A13.081,13.081,0,0,0,27.67,37.267Zm.634-1.9A20.133,20.133,0,0,0,28.97,31h2.979a10.933,10.933,0,0,1-1.894,5.232A13.829,13.829,0,0,0,28.3,35.371ZM28.97,29a20.133,20.133,0,0,0-.666-4.371,13.829,13.829,0,0,0,1.751-.861A10.933,10.933,0,0,1,31.949,29Z"/><path d="M46,30a1,1,0,0,0-1,1v1a1,1,0,0,0,2,0V31A1,1,0,0,0,46,30Z"/><path d="M52,30a1,1,0,0,0-1,1v1a1,1,0,0,0,2,0V31A1,1,0,0,0,52,30Z"/><path d="M57,45H53V42.92A8.005,8.005,0,0,0,57,36V35h1a3.009,3.009,0,0,0,3-3V31a3.009,3.009,0,0,0-3-3H57V24a2.986,2.986,0,0,0-1-2.22V3a1,1,0,0,0-1-1H3A1,1,0,0,0,2,3V49a1,1,0,0,0,1,1H36V61a1,1,0,0,0,1,1H61a1,1,0,0,0,1-1V50A5,5,0,0,0,57,45Zm0-15h1a1,1,0,0,1,1,1v1a1,1,0,0,1-1,1H57ZM55.78,51.49l-4.16,2.08,3.12-5.19ZM53.23,47l-1.8,3.01L50.41,49l2-2Zm-8.46,0h.82l2,2-1.02,1.01Zm1.61,6.57-4.16-2.08,1.04-3.11ZM47,45.59V43.74a7.822,7.822,0,0,0,4,0v1.85l-2,2ZM55,36a6,6,0,0,1-12,0V28H55Zm0-12v2H42a3.009,3.009,0,0,1-3-3H54A1,1,0,0,1,55,24ZM4,4H54v6H4ZM36.42,48H4V12H54v9H38a1,1,0,0,0-1,1v1a5.017,5.017,0,0,0,4,4.9V28H40a3.009,3.009,0,0,0-3,3v1a3.009,3.009,0,0,0,3,3h1v1a8.005,8.005,0,0,0,4,6.92V45H41A5.014,5.014,0,0,0,36.42,48ZM41,30v3H40a1,1,0,0,1-1-1V31a1,1,0,0,1,1-1Zm7,30H43V57H41v3H38V50a3.009,3.009,0,0,1,3-3h.61l-1.56,4.68a1,1,0,0,0,.5,1.21L48,56.62Zm-.37-8.22L49,50.41l1.37,1.37L49,54.06ZM60,60H57V57H55v3H50V56.62l7.45-3.73a1,1,0,0,0,.5-1.21L56.39,47H57a3.009,3.009,0,0,1,3,3Z"/></g></svg>
