<svg xmlns="http://www.w3.org/2000/svg" xmlns:xlink="http://www.w3.org/1999/xlink" fill="#6786a1"  version="1.1" x="0px" y="0px" viewBox="0 0 1000 1000" enable-background="new 0 0 1000 1000" xml:space="preserve">

<g><g transform="translate(0.000000,512.000000) scale(0.100000,-0.100000)"><path d="M7969.1,5012c-273.8-36.4-585.9-151.3-813.7-304.4c-702.7-467.2-823.3-1305.8-275.7-1893.6c70.8-76.6,160.8-158.9,197.2-185.7l68.9-45.9V2165v-417.4l47.9-45.9c28.7-30.6,67-47.9,107.2-47.9c55.5,0,99.6,38.3,371.4,306.3l306.3,306.3l277.6,7.7c425,11.5,708.4,97.6,1026.2,308.3c484.4,321.6,710.3,842.4,582.1,1338.3c-126.4,497.8-557.1,886.5-1148.8,1039.6C8535.8,5006.3,8141.4,5033.1,7969.1,5012z M8683.2,4652.1c501.6-149.3,829-469.1,899.9-884.6c44-260.4-61.3-555.2-277.6-769.7c-187.6-185.7-342.7-275.7-622.2-361.9c-153.2-45.9-197.2-51.7-499.7-53.6l-329.3-1.9l-201-199.1l-201-201v252.7c0,139.8-9.6,273.8-21.1,296.8c-9.6,24.9-59.4,70.8-109.1,101.5c-210.6,134-394.4,381-455.7,610.8c-80.4,302.5,26.8,620.3,296.8,878.8c160.8,153.2,335.1,254.7,551.4,319.7c212.5,65.1,304.4,74.7,561,67C8461.2,4703.8,8551.1,4690.4,8683.2,4652.1z"/><path d="M7500,3750.3c-30.6-28.7-47.9-68.9-47.9-105.3c0-36.4,17.2-76.6,47.9-105.3c28.7-30.6,68.9-47.9,105.3-47.9s76.6,17.2,105.3,47.9c30.6,28.7,47.9,68.9,47.9,105.3c0,36.4-17.2,76.6-47.9,105.3c-28.7,30.6-68.9,47.9-105.3,47.9S7528.7,3780.9,7500,3750.3z"/><path d="M8112.7,3750.3c-30.6-28.7-47.9-68.9-47.9-105.3c0-36.4,17.2-76.6,47.9-105.3c28.7-30.6,68.9-47.9,105.3-47.9s76.6,17.2,105.3,47.9c30.6,28.7,47.9,68.9,47.9,105.3c0,36.4-17.2,76.6-47.9,105.3c-28.7,30.6-68.9,47.9-105.3,47.9S8141.4,3780.9,8112.7,3750.3z"/><path d="M8725.4,3750.3c-30.6-28.7-47.9-68.9-47.9-105.3c0-36.4,17.2-76.6,47.9-105.3c28.7-30.6,68.9-47.9,105.3-47.9s76.6,17.2,105.3,47.9c30.6,28.7,47.9,68.9,47.9,105.3c0,36.4-17.2,76.6-47.9,105.3c-28.7,30.6-68.9,47.9-105.3,47.9S8754.1,3780.9,8725.4,3750.3z"/><path d="M4358.1,1933.3c-350.4-67-656.7-206.8-852-388.7l-51.7-47.9l-168.5,59.4c-243.1,82.3-400.2,103.4-656.7,91.9c-584-24.9-999.4-325.5-1231.1-888.4c-227.8-551.4-147.4-1240.7,231.7-1995c78.5-155.1,266.1-409.7,327.4-442.3c51.7-26.8,19.1-107.2-90-229.8c-134-149.3-168.5-166.6-467.2-229.8c-534.2-111-963-275.7-1118.1-428.9c-124.4-124.5-180-346.6-181.9-716.1c0-162.7,3.8-181.9,47.9-224l46-47.9h719.9h718l-74.7-67c-134-120.6-201-348.5-224-748.6c-15.3-260.4-5.7-314,53.6-371.4c42.1-38.3,53.6-38.3,3312.3-38.3H7971l49.8,49.8l49.8,49.8l-11.5,289.1c-13.4,425-68.9,620.3-214.4,763.9l-72.8,72.8h712.2h712.2l46,47.9c46,44,47.9,59.3,47.9,256.6c0,365.7-63.2,585.9-201,708.4c-170.4,149.3-718,344.6-1187.1,425c-72.8,11.5-164.6,38.3-201,55.5c-76.6,40.2-181.9,145.5-254.6,256.6l-49.8,74.7l105.3,113c195.3,212.5,331.2,449.9,492.1,857.7c130.2,331.2,157,482.5,157,890.3c0,404-17.2,490.1-160.8,785c-172.3,354.2-455.7,576.3-884.5,693.1c-91.9,24.9-195.3,34.5-409.7,34.5c-302.5,0-457.6-30.6-647.1-126.4l-70.8-38.3l-120.6,97.7c-153.2,126.4-457.6,275.7-664.4,325.5C4982.3,1954.4,4551.5,1969.7,4358.1,1933.3z M5141.2,1598.3c384.8-101.5,704.6-360,888.4-721.8c166.6-321.7,231.7-656.7,208.7-1058.8c-24.9-411.7-76.6-633.8-250.8-1064.5c-222.1-549.5-333.2-712.2-706.5-1035.8c-84.2-74.7-86.2-113-11.5-273.8c143.6-304.4,384.8-580.1,597.4-687.4c76.6-38.3,195.3-74.7,331.2-101.5c585.9-109.1,1141.1-292.9,1374.7-455.7c55.5-38.3,95.7-84.2,114.9-134c32.6-76.6,70.8-337,70.8-465.3v-72.8H4693.2H1629.8l11.5,139.8c26.8,300.6,67,448,141.7,507.4c63.2,49.8,340.8,183.8,515,245.1c231.7,84.2,557.2,170.4,861.6,229.8c365.7,68.9,543.8,174.2,742.9,430.8c120.6,157,275.7,453.8,275.7,528.4c0,53.6-17.2,76.6-132.1,166.6c-285.3,227.8-438.4,465.3-660.5,1024.3C3153.8-622.7,3092.5-33,3211.3,480.1c42.1,183.8,216.3,526.5,338.9,670.1c304.4,354.2,691.2,513.1,1211.9,494C4909.5,1640.4,5045.5,1623.2,5141.2,1598.3z M3084.9,1301.5c57.4-15.3,111.1-36.4,120.6-46c9.6-9.6-15.3-72.8-61.3-149.3c-111-189.5-224-492.1-262.3-698.8c-63.2-354.2-34.5-890.3,70.8-1301.9c51.7-203,285.3-773.5,396.3-968.8c109.1-191.5,302.5-438.4,407.8-522.7l76.6-61.3l-59.4-113c-80.4-149.4-258.5-340.8-373.3-404c-51.7-26.8-153.2-59.3-227.8-70.8c-168.5-28.7-572.5-124.5-733.3-174.2c-114.9-36.4-180-38.3-1079.9-38.3H402.5l11.5,130.2c23,227.8,47.9,306.3,114.9,358c137.9,105.3,559.1,248.9,953.5,327.4c314,63.2,436.5,122.5,585.9,287.2c126.4,137.8,271.9,396.3,271.9,484.4c0,63.2-15.3,82.3-178.1,218.3c-124.4,101.5-247,298.7-369.5,589.7c-128.3,304.4-172.3,467.1-201,744.8c-49.8,474.8,68.9,867.3,346.5,1150.7c139.8,141.7,302.5,235.5,486.3,277.6C2569.9,1353.2,2937.5,1343.6,3084.9,1301.5z M6998.4,1316.8c442.3-97.6,729.5-390.6,827.1-838.6c40.2-178.1,30.6-610.8-17.2-819.5c-40.2-178.1-206.8-587.8-314-771.6c-80.4-137.9-248.9-329.3-392.5-444.2c-70.8-57.4-67-126.4,17.2-291c90-172.3,245.1-361.9,363.8-438.5c103.4-70.8,187.6-95.7,524.6-168.5c457.6-95.7,875-262.3,917.1-367.6c26.8-65.1,59.4-258.5,59.4-352.3v-72.8H8038h-945.8l-245.1,67c-135.9,38.3-371.4,93.8-522.7,124.5c-178.1,36.4-302.5,72.8-356.1,105.3c-109.1,63.2-262.3,237.4-338.9,384.8l-61.3,120.6l88.1,78.5c118.7,103.4,298.7,342.7,405.9,539.9c199.1,367.6,394.4,930.5,453.8,1307.7c38.3,235.5,32.6,769.7-9.6,966.9c-40.2,195.3-139.8,457.6-243.1,645.2c-40.2,76.6-74.7,141.7-74.7,145.5c0,13.4,162.7,70.8,250.8,88.1C6579.1,1355.1,6852.9,1349.4,6998.4,1316.8z"/></g></g>
</svg>